# Blender 4.1.1
# www.blender.org
mtllib muse2.mtl
o Red
v 4.000000 0.000000 -6.000000
v 4.000000 0.000000 6.000000
v -4.000000 0.000000 -6.000000
v -4.000000 0.000000 6.000000
v 4.000000 0.000000 -0.800000
v 4.000000 0.000000 0.800000
v 7.200000 0.000000 -0.800000
v 7.200000 0.000000 0.800000
vn -0.0000 1.0000 -0.0000
vt 0.625000 0.583333
vt 0.625000 0.500000
vt 0.875000 0.500000
vt 0.875000 0.750000
vt 0.625000 0.750000
vt 0.625000 0.666667
s 0
usemtl Material.002
f 5/1/1 1/2/1 3/3/1 4/4/1 2/5/1 6/6/1
f 6/6/1 8/6/1 7/1/1 5/1/1
o Tan
v 3.950000 0.000000 -5.950000
v 3.950000 0.000000 5.950000
v -3.950000 0.000000 -5.950000
v -3.950000 0.000000 5.950000
v 3.950000 0.000000 -0.750000
v 3.950000 0.000000 0.750000
v 6.950000 0.000000 -0.750000
v 6.950000 0.000000 0.750000
v 3.950000 0.200000 -5.950000
v 3.950000 0.200000 5.950000
v -3.950000 0.200000 -5.950000
v -3.950000 0.200000 5.950000
v 3.950000 0.200000 -0.750000
v 3.950000 0.200000 0.750000
v 6.950000 0.200000 -0.750000
v 6.950000 0.200000 0.750000
v 4.000000 0.200000 -6.000000
v 4.000000 0.200000 6.000000
v -4.000000 0.200000 -6.000000
v -4.000000 0.200000 6.000000
v 4.000000 0.200000 -0.800000
v 4.000000 0.200000 0.800000
v 7.000000 0.200000 -0.800000
v 7.000000 0.200000 0.800000
v 6.950000 0.000000 0.600000
v 7.000000 0.200000 0.600000
v 6.950000 0.000000 -0.600000
v 6.950000 0.200000 -0.600000
v 7.000000 0.200000 -0.600000
v 6.950000 0.000000 -0.550000
v 6.950000 0.000000 -0.450000
v 6.950000 2.200000 -0.600000
v 6.950000 2.150000 -0.550000
v 6.950000 2.050000 -0.450000
v 6.950000 2.200000 0.600000
v 6.950000 2.150000 0.550000
v 6.950000 2.050000 0.450000
v 6.950000 0.200000 0.600000
v 6.935000 0.000000 -0.575000
v 6.950000 -0.000000 0.550000
v 6.950000 -0.000000 0.450000
v 6.935000 2.175000 -0.575000
v 6.935000 2.175000 0.575000
v 6.935000 -0.000000 0.575000
v 7.000000 2.200000 -0.600000
v 7.000000 2.200000 0.600000
v 7.200000 0.000000 -0.450000
v 7.200000 2.050000 -0.450000
v 7.200000 2.050000 0.450000
v 7.200000 -0.000000 0.450000
vn -0.0000 -0.0000 -1.0000
vn 1.0000 -0.0000 -0.0000
vn -1.0000 -0.0000 -0.0000
vn -0.0000 -0.0000 1.0000
vn -0.0000 1.0000 -0.0000
vn -0.8575 -0.0000 -0.5145
vn -0.9822 0.1330 -0.1330
vn -0.9206 0.2762 -0.2762
vn -0.9822 0.1330 0.1330
vn -0.9206 0.2762 0.2762
vn -0.9206 -0.2762 -0.2762
vn -0.9206 -0.2762 0.2762
vn -0.8575 -0.0000 0.5145
vn -0.0000 -1.0000 -0.0000
vt 0.875000 0.750000
vt 0.625000 0.750000
vt 0.625000 0.666667
vt 0.875000 0.500000
vt 0.625000 0.583333
vt 0.625000 0.500000
vt 0.000000 0.000000
vt 0.625000 0.625000
s 0
usemtl Material.003
f 12/7/2 20/7/2 18/8/2 10/8/2
f 14/9/2 22/9/2 24/9/2 16/9/2
f 11/10/3 19/10/3 20/7/3 12/7/3
f 13/11/4 21/11/4 17/12/4 9/12/4
f 10/8/4 18/8/4 22/9/4 14/9/4
f 15/11/5 23/11/5 21/11/5 13/11/5
f 31/11/6 23/11/6 36/13/6 37/13/6
f 9/12/5 17/12/5 19/10/5 11/10/5
f 35/13/4 36/13/4 23/11/4 15/11/4
f 21/11/6 29/11/6 25/12/6 17/12/6
f 18/8/6 26/8/6 30/9/6 22/9/6
f 22/9/6 30/9/6 32/9/6 24/9/6
f 19/10/6 27/10/6 28/7/6 20/7/6
f 17/12/6 25/12/6 27/10/6 19/10/6
f 20/7/6 28/7/6 26/8/6 18/8/6
f 23/11/6 31/11/6 29/11/6 21/11/6
f 24/9/6 32/9/6 34/14/6 46/14/6
f 16/9/4 24/9/4 46/14/4 33/14/4
f 38/13/4 39/13/4 42/13/4 41/13/4
s 1
f 35/13/7 47/13/4 50/13/8 40/13/9 36/13/7
s 0
f 42/13/4 45/13/4 44/13/4 41/13/4
s 1
f 50/13/8 51/13/10 43/13/11 40/13/9
f 44/13/12 48/13/7 52/13/4 51/13/10
s 0
f 44/13/4 45/13/4 49/13/4 48/13/4
s 1
f 41/13/13 44/13/12 51/13/10 50/13/8
f 50/13/8 47/13/4 38/13/14 41/13/13
f 46/13/14 43/13/11 51/13/10 52/13/4 33/13/14
s 0
f 36/13/2 40/13/2 53/13/2 37/13/2
f 40/13/6 43/13/6 54/13/6 53/13/6
f 43/13/5 46/13/5 34/13/5 54/13/5
f 45/13/2 57/13/2 58/13/2 49/13/2
f 42/13/15 56/13/15 57/13/15 45/13/15
f 39/13/5 55/13/5 56/13/5 42/13/5
o White
v 4.000000 0.200000 -6.000000
v 4.000000 0.200000 6.000000
v -4.000000 0.200000 -6.000000
v -4.000000 0.200000 6.000000
v 4.000000 0.200000 -0.800000
v 4.000000 0.200000 0.800000
v 7.000000 0.200000 -0.800000
v 7.000000 0.200000 0.800000
v 4.000000 3.200000 -6.000000
v 4.000000 3.200000 6.000000
v -4.000000 3.200000 -6.000000
v -4.000000 3.200000 6.000000
v 4.000000 3.200000 -0.800000
v 4.000000 3.200000 0.800000
v 7.000000 3.200000 -0.800000
v 7.000000 3.200000 0.800000
v 7.000000 0.200000 0.600000
v 7.000000 3.200000 0.600000
v 7.000000 0.200000 -0.600000
v 7.000000 3.200000 -0.600000
v 7.000000 2.200000 0.600000
v 7.000000 2.200000 -0.600000
vn -0.0000 -0.0000 -1.0000
vn -0.0000 -0.0000 1.0000
vn -1.0000 -0.0000 -0.0000
vn 1.0000 -0.0000 -0.0000
vt 0.875000 0.750000
vt 0.625000 0.750000
vt 0.625000 0.583333
vt 0.625000 0.666667
vt 0.625000 0.500000
vt 0.875000 0.500000
vt 0.000000 0.000000
s 0
usemtl Material.007
f 76/21/18 78/21/18 80/21/18 79/21/18
usemtl Material.009
f 62/15/16 70/15/16 68/16/16 60/16/16
f 65/17/17 73/17/17 71/17/17 63/17/17
f 74/18/18 76/18/18 75/18/18 66/18/18
f 63/17/18 71/17/18 67/19/18 59/19/18
f 60/16/18 68/16/18 72/18/18 64/18/18
f 64/18/16 72/18/16 74/18/16 66/18/16
f 61/20/19 69/20/19 70/15/19 62/15/19
f 59/19/17 67/19/17 69/20/17 61/20/17
f 65/17/18 77/17/18 78/17/18 73/17/18
o Silver
v -3.950000 2.500000 0.600000
v -3.950000 1.300000 0.600000
v -3.950000 2.500000 -0.600000
v -3.950000 1.300000 -0.600000
v -4.000000 2.500000 0.600000
v -4.000000 1.300000 0.600000
v -4.000000 2.500000 -0.600000
v -4.000000 1.300000 -0.600000
v -3.950000 2.450000 0.550000
v -3.950000 1.350000 0.550000
v -3.950000 2.450000 -0.550000
v -3.950000 1.350000 -0.550000
v -3.975000 2.450000 0.550000
v -3.975000 1.350000 0.550000
v -3.975000 2.450000 -0.550000
v -3.975000 1.350000 -0.550000
vn -0.0000 -1.0000 -0.0000
vn -0.0000 1.0000 -0.0000
vn -0.0000 -0.0000 -1.0000
vn -0.0000 -0.0000 1.0000
vn 1.0000 -0.0000 -0.0000
vt 0.000000 0.000000
s 0
usemtl Material.011
f 84/22/20 82/22/20 86/22/20 88/22/20
f 81/22/21 83/22/21 87/22/21 85/22/21
f 83/22/22 84/22/22 88/22/22 87/22/22
f 82/22/23 81/22/23 85/22/23 86/22/23
f 82/22/24 84/22/24 92/22/24 90/22/24
f 83/22/24 81/22/24 89/22/24 91/22/24
f 84/22/24 83/22/24 91/22/24 92/22/24
f 81/22/24 82/22/24 90/22/24 89/22/24
f 92/22/23 91/22/23 95/22/23 96/22/23
f 89/22/22 90/22/22 94/22/22 93/22/22
f 90/22/21 92/22/21 96/22/21 94/22/21
f 91/22/20 89/22/20 93/22/20 95/22/20
o Eggshell
v -3.975000 2.450000 0.550000
v -3.975000 1.350000 0.550000
v -3.975000 2.450000 -0.550000
v -3.975000 1.350000 -0.550000
v -3.975000 2.234643 0.334643
v -3.975000 1.565357 0.334642
v -3.975000 2.234643 -0.334642
v -3.975000 1.565357 -0.334643
v -3.987300 2.234643 0.334643
v -3.987300 1.565357 0.334642
v -3.987300 2.234643 -0.334642
v -3.987300 1.565357 -0.334643
vn -1.0000 -0.0000 -0.0000
vn -0.0000 -0.0000 1.0000
vn -0.0000 -1.0000 -0.0000
vn -0.0000 1.0000 -0.0000
vn -0.0000 -0.0000 -1.0000
vt 0.000000 0.000000
s 0
usemtl Material.010
f 99/23/25 100/23/25 104/23/25 103/23/25
f 98/23/25 97/23/25 101/23/25 102/23/25
f 100/23/25 98/23/25 102/23/25 104/23/25
f 97/23/25 99/23/25 103/23/25 101/23/25
f 102/23/26 101/23/26 105/23/26 106/23/26
f 104/23/27 102/23/27 106/23/27 108/23/27
f 101/23/28 103/23/28 107/23/28 105/23/28
f 103/23/29 104/23/29 108/23/29 107/23/29
o Blue
v -3.987300 2.234643 0.334643
v -3.987300 1.565357 0.334642
v -3.987300 2.234643 -0.334642
v -3.987300 1.565357 -0.334643
vn -1.0000 -0.0000 -0.0000
vt 0.000000 0.000000
s 0
usemtl Material.012
f 111/24/30 112/24/30 110/24/30 109/24/30
