# Blender 4.1.1
# www.blender.org
mtllib muse2.mtl
o Red
v 4.000000 0.000000 -6.000000
v 4.000000 0.000000 6.000000
v -4.000000 0.000000 -6.000000
v -4.000000 0.000000 6.000000
v 4.000000 0.000000 -0.800000
v 4.000000 0.000000 0.800000
v 7.200000 0.000000 -0.800000
v 7.200000 0.000000 0.800000
vn -0.0000 1.0000 -0.0000
vt 0.625000 0.583333
vt 0.625000 0.500000
vt 0.875000 0.500000
vt 0.875000 0.750000
vt 0.625000 0.750000
vt 0.625000 0.666667
s 0
usemtl Material.002
f 5/1/1 1/2/1 3/3/1 4/4/1 2/5/1 6/6/1
f 6/6/1 8/6/1 7/1/1 5/1/1
o Tan
v 3.950000 0.000000 -5.950000
v 3.950000 0.000000 5.950000
v -3.950000 0.000000 -5.950000
v -3.950000 0.000000 5.950000
v 3.950000 0.000000 -0.750000
v 3.950000 0.000000 0.750000
v 6.950000 0.000000 -0.750000
v 6.950000 0.000000 0.750000
v 3.950000 0.200000 -5.950000
v 3.950000 0.200000 5.950000
v -3.950000 0.200000 -5.950000
v -3.950000 0.200000 5.950000
v 3.950000 0.200000 -0.750000
v 3.950000 0.200000 0.750000
v 6.950000 0.200000 -0.750000
v 6.950000 0.200000 0.750000
v 4.000000 0.200000 -6.000000
v 4.000000 0.200000 6.000000
v -4.000000 0.200000 -6.000000
v -4.000000 0.200000 6.000000
v 4.000000 0.200000 -0.800000
v 4.000000 0.200000 0.800000
v 7.000000 0.200000 -0.800000
v 7.000000 0.200000 0.800000
v 6.950000 0.000000 0.600000
v 7.000000 0.200000 0.600000
v 6.950000 0.000000 -0.600000
v 6.950000 0.200000 -0.600000
v 7.000000 0.200000 -0.600000
v 6.950000 0.000000 -0.550000
v 6.950000 0.000000 -0.450000
v 6.950000 2.200000 -0.600000
v 6.950000 2.150000 -0.550000
v 6.950000 2.050000 -0.450000
v 6.950000 2.200000 0.600000
v 6.950000 2.150000 0.550000
v 6.950000 2.050000 0.450000
v 6.950000 0.200000 0.600000
v 6.935000 0.000000 -0.575000
v 6.950000 -0.000000 0.550000
v 6.950000 -0.000000 0.450000
v 6.935000 2.175000 -0.575000
v 6.935000 2.175000 0.575000
v 6.935000 -0.000000 0.575000
v 7.000000 2.200000 -0.600000
v 7.000000 2.200000 0.600000
v 7.200000 0.000000 -0.450000
v 7.200000 2.050000 -0.450000
v 7.200000 2.050000 0.450000
v 7.200000 -0.000000 0.450000
vn -0.0000 -0.0000 -1.0000
vn 1.0000 -0.0000 -0.0000
vn -1.0000 -0.0000 -0.0000
vn -0.0000 -0.0000 1.0000
vn -0.0000 1.0000 -0.0000
vn -0.8575 -0.0000 -0.5145
vn -0.9822 0.1330 -0.1330
vn -0.9206 0.2762 -0.2762
vn -0.9822 0.1330 0.1330
vn -0.9206 0.2762 0.2762
vn -0.9206 -0.2762 -0.2762
vn -0.9206 -0.2762 0.2762
vn -0.8575 -0.0000 0.5145
vn -0.0000 -1.0000 -0.0000
vt 0.875000 0.750000
vt 0.625000 0.750000
vt 0.625000 0.666667
vt 0.875000 0.500000
vt 0.625000 0.583333
vt 0.625000 0.500000
vt 0.000000 0.000000
vt 0.625000 0.625000
s 0
usemtl Material.003
f 12/7/2 20/7/2 18/8/2 10/8/2
f 14/9/2 22/9/2 24/9/2 16/9/2
f 11/10/3 19/10/3 20/7/3 12/7/3
f 13/11/4 21/11/4 17/12/4 9/12/4
f 10/8/4 18/8/4 22/9/4 14/9/4
f 15/11/5 23/11/5 21/11/5 13/11/5
f 31/11/6 23/11/6 36/13/6 37/13/6
f 9/12/5 17/12/5 19/10/5 11/10/5
f 35/13/4 36/13/4 23/11/4 15/11/4
f 21/11/6 29/11/6 25/12/6 17/12/6
f 18/8/6 26/8/6 30/9/6 22/9/6
f 22/9/6 30/9/6 32/9/6 24/9/6
f 19/10/6 27/10/6 28/7/6 20/7/6
f 17/12/6 25/12/6 27/10/6 19/10/6
f 20/7/6 28/7/6 26/8/6 18/8/6
f 23/11/6 31/11/6 29/11/6 21/11/6
f 24/9/6 32/9/6 34/14/6 46/14/6
f 16/9/4 24/9/4 46/14/4 33/14/4
f 38/13/4 39/13/4 42/13/4 41/13/4
s 1
f 35/13/7 47/13/4 50/13/8 40/13/9 36/13/7
s 0
f 42/13/4 45/13/4 44/13/4 41/13/4
s 1
f 50/13/8 51/13/10 43/13/11 40/13/9
f 44/13/12 48/13/7 52/13/4 51/13/10
s 0
f 44/13/4 45/13/4 49/13/4 48/13/4
s 1
f 41/13/13 44/13/12 51/13/10 50/13/8
f 50/13/8 47/13/4 38/13/14 41/13/13
f 46/13/14 43/13/11 51/13/10 52/13/4 33/13/14
s 0
f 36/13/2 40/13/2 53/13/2 37/13/2
f 40/13/6 43/13/6 54/13/6 53/13/6
f 43/13/5 46/13/5 34/13/5 54/13/5
f 45/13/2 57/13/2 58/13/2 49/13/2
f 42/13/15 56/13/15 57/13/15 45/13/15
f 39/13/5 55/13/5 56/13/5 42/13/5
o White
v 4.000000 0.200000 -6.000000
v 4.000000 0.200000 6.000000
v -4.000000 0.200000 -6.000000
v -4.000000 0.200000 6.000000
v 4.000000 0.200000 -0.800000
v 4.000000 0.200000 0.800000
v 7.000000 0.200000 -0.800000
v 7.000000 0.200000 0.800000
v 4.000000 3.200000 -6.000000
v 4.000000 3.200000 6.000000
v -4.000000 3.200000 -6.000000
v -4.000000 3.200000 6.000000
v 4.000000 3.200000 -0.800000
v 4.000000 3.200000 0.800000
v 7.000000 3.200000 -0.800000
v 7.000000 3.200000 0.800000
v 7.000000 0.200000 0.600000
v 7.000000 3.200000 0.600000
v 7.000000 0.200000 -0.600000
v 7.000000 3.200000 -0.600000
v 7.000000 2.200000 -0.800000
v 7.000000 2.200000 -0.600000
v 7.000000 2.200000 0.600000
v 7.000000 2.200000 0.800000
vn -0.0000 -0.0000 -1.0000
vn -0.0000 -0.0000 1.0000
vn -1.0000 -0.0000 -0.0000
vn 1.0000 -0.0000 -0.0000
vt 0.875000 0.750000
vt 0.625000 0.750000
vt 0.625000 0.583333
vt 0.625000 0.583333
vt 0.625000 0.666667
vt 0.625000 0.500000
vt 0.875000 0.500000
s 0
usemtl Material.009
f 62/15/16 70/15/16 68/16/16 60/16/16
f 65/17/17 79/18/17 73/17/17 71/17/17 63/17/17
f 74/19/18 76/19/18 81/19/18 82/19/18
f 63/17/18 71/17/18 67/20/18 59/20/18
f 60/16/18 68/16/18 72/19/18 64/19/18
f 64/19/16 72/19/16 74/19/16 82/19/16 66/19/16
f 61/21/19 69/21/19 70/15/19 62/15/19
f 59/20/17 67/20/17 69/21/17 61/21/17
f 65/17/18 77/17/18 80/17/18 79/18/18
f 79/18/18 80/17/18 78/17/18 73/17/18
f 82/19/18 81/19/18 75/19/18 66/19/18
f 81/19/18 76/19/18 78/17/18 80/17/18
o Silver
v -3.950000 2.500000 0.600000
v -3.950000 1.300000 0.600000
v -3.950000 2.500000 -0.600000
v -3.950000 1.300000 -0.600000
v -4.000000 2.500000 0.600000
v -4.000000 1.300000 0.600000
v -4.000000 2.500000 -0.600000
v -4.000000 1.300000 -0.600000
v -3.950000 2.450000 0.550000
v -3.950000 1.350000 0.550000
v -3.950000 2.450000 -0.550000
v -3.950000 1.350000 -0.550000
v -3.975000 2.450000 0.550000
v -3.975000 1.350000 0.550000
v -3.975000 2.450000 -0.550000
v -3.975000 1.350000 -0.550000
v -3.950000 2.500000 3.800000
v -3.950000 1.300000 3.800000
v -3.950000 2.500000 1.700000
v -3.950000 1.300000 1.700000
v -4.000000 2.500000 3.800000
v -4.000000 1.300000 3.800000
v -4.000000 2.500000 1.700000
v -4.000000 1.300000 1.700000
v -3.950000 2.450000 3.750000
v -3.950000 1.350000 3.750000
v -3.950000 2.450000 1.750000
v -3.950000 1.350000 1.750000
v -3.975000 2.450000 3.750000
v -3.975000 1.350000 3.750000
v -3.975000 2.450000 1.750000
v -3.975000 1.350000 1.750000
v -3.950000 2.900000 -1.700000
v -3.950000 0.800000 -1.700000
v -3.950000 2.900000 -2.900000
v -3.950000 0.800000 -2.900000
v -4.000000 2.900000 -1.700000
v -4.000000 0.800000 -1.700000
v -4.000000 2.900000 -2.900000
v -4.000000 0.800000 -2.900000
v -3.950000 2.850000 -1.750000
v -3.950000 0.850000 -1.750000
v -3.950000 2.850000 -2.850000
v -3.950000 0.850000 -2.850000
v -3.975000 2.850000 -1.750000
v -3.975000 0.850000 -1.750000
v -3.975000 2.850000 -2.850000
v -3.975000 0.850000 -2.850000
vn -0.0000 -1.0000 -0.0000
vn -0.0000 1.0000 -0.0000
vn -0.0000 -0.0000 -1.0000
vn -0.0000 -0.0000 1.0000
vn 1.0000 -0.0000 -0.0000
vt 0.000000 0.000000
s 0
usemtl Material.011
f 86/22/20 84/22/20 88/22/20 90/22/20
f 83/22/21 85/22/21 89/22/21 87/22/21
f 85/22/22 86/22/22 90/22/22 89/22/22
f 84/22/23 83/22/23 87/22/23 88/22/23
f 84/22/24 86/22/24 94/22/24 92/22/24
f 85/22/24 83/22/24 91/22/24 93/22/24
f 86/22/24 85/22/24 93/22/24 94/22/24
f 83/22/24 84/22/24 92/22/24 91/22/24
f 94/22/23 93/22/23 97/22/23 98/22/23
f 91/22/22 92/22/22 96/22/22 95/22/22
f 92/22/21 94/22/21 98/22/21 96/22/21
f 93/22/20 91/22/20 95/22/20 97/22/20
f 102/22/20 100/22/20 104/22/20 106/22/20
f 99/22/21 101/22/21 105/22/21 103/22/21
f 101/22/22 102/22/22 106/22/22 105/22/22
f 100/22/23 99/22/23 103/22/23 104/22/23
f 100/22/24 102/22/24 110/22/24 108/22/24
f 101/22/24 99/22/24 107/22/24 109/22/24
f 102/22/24 101/22/24 109/22/24 110/22/24
f 99/22/24 100/22/24 108/22/24 107/22/24
f 110/22/23 109/22/23 113/22/23 114/22/23
f 107/22/22 108/22/22 112/22/22 111/22/22
f 108/22/21 110/22/21 114/22/21 112/22/21
f 109/22/20 107/22/20 111/22/20 113/22/20
f 118/22/20 116/22/20 120/22/20 122/22/20
f 115/22/21 117/22/21 121/22/21 119/22/21
f 117/22/22 118/22/22 122/22/22 121/22/22
f 116/22/23 115/22/23 119/22/23 120/22/23
f 116/22/24 118/22/24 126/22/24 124/22/24
f 117/22/24 115/22/24 123/22/24 125/22/24
f 118/22/24 117/22/24 125/22/24 126/22/24
f 115/22/24 116/22/24 124/22/24 123/22/24
f 126/22/23 125/22/23 129/22/23 130/22/23
f 123/22/22 124/22/22 128/22/22 127/22/22
f 124/22/21 126/22/21 130/22/21 128/22/21
f 125/22/20 123/22/20 127/22/20 129/22/20
o Eggshell
v -3.975000 2.450000 0.550000
v -3.975000 1.350000 0.550000
v -3.975000 2.450000 -0.550000
v -3.975000 1.350000 -0.550000
v -3.975000 2.234643 0.334643
v -3.975000 1.565357 0.334642
v -3.975000 2.234643 -0.334642
v -3.975000 1.565357 -0.334643
v -3.987300 2.234643 0.334643
v -3.987300 1.565357 0.334642
v -3.987300 2.234643 -0.334642
v -3.987300 1.565357 -0.334643
v -3.975000 2.850000 -1.750000
v -3.975000 0.850000 -1.750000
v -3.975000 2.850000 -2.850000
v -3.975000 0.850000 -2.850000
v -3.975000 2.634643 -1.965357
v -3.975000 1.065357 -1.965357
v -3.975000 2.634643 -2.634642
v -3.975000 1.065357 -2.634643
v -3.987300 2.634643 -1.965357
v -3.987300 1.065357 -1.965357
v -3.987300 2.634643 -2.634642
v -3.987300 1.065357 -2.634643
v -3.975000 2.450000 3.750000
v -3.975000 1.350000 3.750000
v -3.975000 2.450000 1.750000
v -3.975000 1.350000 1.750000
v -3.975000 2.234643 3.534643
v -3.975000 1.565357 3.534642
v -3.975000 2.234643 1.965357
v -3.975000 1.565357 1.965357
v -3.987300 2.234643 3.534643
v -3.987300 1.565357 3.534642
v -3.987300 2.234643 1.965357
v -3.987300 1.565357 1.965357
vn 1.0000 -0.0000 -0.0000
vn -0.0000 -0.0000 -1.0000
vn -0.0000 1.0000 -0.0000
vn -0.0000 -1.0000 -0.0000
vn -0.0000 -0.0000 1.0000
vt 0.000000 0.000000
s 0
usemtl Material.010
f 133/23/25 137/23/25 138/23/25 134/23/25
f 132/23/25 136/23/25 135/23/25 131/23/25
f 134/23/25 138/23/25 136/23/25 132/23/25
f 131/23/25 135/23/25 137/23/25 133/23/25
f 136/23/26 140/23/26 139/23/26 135/23/26
f 138/23/27 142/23/27 140/23/27 136/23/27
f 135/23/28 139/23/28 141/23/28 137/23/28
f 137/23/29 141/23/29 142/23/29 138/23/29
f 145/23/25 149/23/25 150/23/25 146/23/25
f 144/23/25 148/23/25 147/23/25 143/23/25
f 146/23/25 150/23/25 148/23/25 144/23/25
f 143/23/25 147/23/25 149/23/25 145/23/25
f 148/23/26 152/23/26 151/23/26 147/23/26
f 150/23/27 154/23/27 152/23/27 148/23/27
f 147/23/28 151/23/28 153/23/28 149/23/28
f 149/23/29 153/23/29 154/23/29 150/23/29
f 157/23/25 161/23/25 162/23/25 158/23/25
f 156/23/25 160/23/25 159/23/25 155/23/25
f 158/23/25 162/23/25 160/23/25 156/23/25
f 155/23/25 159/23/25 161/23/25 157/23/25
f 160/23/26 164/23/26 163/23/26 159/23/26
f 162/23/27 166/23/27 164/23/27 160/23/27
f 159/23/28 163/23/28 165/23/28 161/23/28
f 161/23/29 165/23/29 166/23/29 162/23/29
o BluePaint
v -3.987300 2.234643 0.334643
v -3.987300 1.565357 0.334642
v -3.987300 2.234643 -0.334642
v -3.987300 1.565357 -0.334643
vn 1.0000 -0.0000 -0.0000
vt 0.000000 0.000000
s 0
usemtl Material.012
f 169/24/30 167/24/30 168/24/30 170/24/30
o RedPaint
v -3.987300 2.234643 3.534643
v -3.987300 1.565357 3.534642
v -3.987300 2.234643 1.965358
v -3.987300 1.565357 1.965357
vn 1.0000 -0.0000 -0.0000
vt 0.000000 0.000000
s 0
usemtl Material.016
f 173/25/31 171/25/31 172/25/31 174/25/31
o GreenPaint
v -3.987300 2.634643 -1.965357
v -3.987300 1.065357 -1.965357
v -3.987300 2.634643 -2.634642
v -3.987300 1.065357 -2.634643
vn 1.0000 -0.0000 -0.0000
vt 0.000000 0.000000
s 0
usemtl Material.017
f 177/26/32 175/26/32 176/26/32 178/26/32
o Cylinder
v 0.000000 0.100000 4.500000
v 0.000000 1.000000 4.500000
v 0.097545 0.100000 4.509607
v 0.097545 1.000000 4.509607
v 0.191342 0.100000 4.538060
v 0.191342 1.000000 4.538060
v 0.277785 0.100000 4.584265
v 0.277785 1.000000 4.584265
v 0.353553 0.100000 4.646446
v 0.353553 1.000000 4.646446
v 0.415735 0.100000 4.722215
v 0.415735 1.000000 4.722215
v 0.461940 0.100000 4.808658
v 0.461940 1.000000 4.808658
v 0.490393 0.100000 4.902454
v 0.490393 1.000000 4.902454
v 0.500000 0.100000 5.000000
v 0.500000 1.000000 5.000000
v 0.490393 0.100000 5.097545
v 0.490393 1.000000 5.097545
v 0.461940 0.100000 5.191341
v 0.461940 1.000000 5.191341
v 0.415735 0.100000 5.277785
v 0.415735 1.000000 5.277785
v 0.353553 0.100000 5.353553
v 0.353553 1.000000 5.353553
v 0.277785 0.100000 5.415734
v 0.277785 1.000000 5.415734
v 0.191342 0.100000 5.461940
v 0.191342 1.000000 5.461940
v 0.097545 0.100000 5.490393
v 0.097545 1.000000 5.490393
v 0.000000 0.100000 5.500000
v 0.000000 1.000000 5.500000
v -0.097545 0.100000 5.490393
v -0.097545 1.000000 5.490393
v -0.191342 0.100000 5.461940
v -0.191342 1.000000 5.461940
v -0.277785 0.100000 5.415734
v -0.277785 1.000000 5.415734
v -0.353553 0.100000 5.353553
v -0.353553 1.000000 5.353553
v -0.415735 0.100000 5.277785
v -0.415735 1.000000 5.277785
v -0.461940 0.100000 5.191341
v -0.461940 1.000000 5.191341
v -0.490393 0.100000 5.097545
v -0.490393 1.000000 5.097545
v -0.500000 0.100000 5.000000
v -0.500000 1.000000 5.000000
v -0.490393 0.100000 4.902454
v -0.490393 1.000000 4.902454
v -0.461940 0.100000 4.808658
v -0.461940 1.000000 4.808658
v -0.415735 0.100000 4.722215
v -0.415735 1.000000 4.722215
v -0.353553 0.100000 4.646446
v -0.353553 1.000000 4.646446
v -0.277785 0.100000 4.584265
v -0.277785 1.000000 4.584265
v -0.191342 0.100000 4.538060
v -0.191342 1.000000 4.538060
v -0.097545 0.100000 4.509607
v -0.097545 1.000000 4.509607
v 0.000000 0.100000 4.600000
v 0.078036 0.100000 4.607686
v 0.153073 0.100000 4.630448
v 0.222228 0.100000 4.667412
v 0.282843 0.100000 4.717157
v 0.332588 0.100000 4.777772
v 0.369552 0.100000 4.846927
v 0.392314 0.100000 4.921964
v 0.400000 0.100000 5.000000
v 0.392314 0.100000 5.078036
v 0.369552 0.100000 5.153073
v 0.332588 0.100000 5.222228
v 0.282843 0.100000 5.282842
v 0.222228 0.100000 5.332587
v 0.153073 0.100000 5.369552
v 0.078036 0.100000 5.392314
v 0.000000 0.100000 5.400000
v -0.078036 0.100000 5.392314
v -0.153073 0.100000 5.369552
v -0.222228 0.100000 5.332587
v -0.282843 0.100000 5.282842
v -0.332588 0.100000 5.222228
v -0.369552 0.100000 5.153073
v -0.392314 0.100000 5.078036
v -0.400000 0.100000 5.000000
v -0.392314 0.100000 4.921964
v -0.369552 0.100000 4.846927
v -0.332588 0.100000 4.777772
v -0.282843 0.100000 4.717157
v -0.222228 0.100000 4.667412
v -0.153073 0.100000 4.630448
v -0.078036 0.100000 4.607686
v 0.000000 0.000000 4.600000
v 0.078036 0.000000 4.607686
v 0.153073 0.000000 4.630448
v 0.222228 0.000000 4.667412
v 0.282843 0.000000 4.717157
v 0.332588 0.000000 4.777772
v 0.369552 0.000000 4.846927
v 0.392314 0.000000 4.921964
v 0.400000 0.000000 5.000000
v 0.392314 0.000000 5.078036
v 0.369552 0.000000 5.153073
v 0.332588 0.000000 5.222228
v 0.282843 0.000000 5.282842
v 0.222228 0.000000 5.332587
v 0.153073 0.000000 5.369552
v 0.078036 0.000000 5.392314
v 0.000000 0.000000 5.400000
v -0.078036 0.000000 5.392314
v -0.153073 0.000000 5.369552
v -0.222228 0.000000 5.332587
v -0.282843 0.000000 5.282842
v -0.332588 0.000000 5.222228
v -0.369552 0.000000 5.153073
v -0.392314 0.000000 5.078036
v -0.400000 0.000000 5.000000
v -0.392314 0.000000 4.921964
v -0.369552 0.000000 4.846927
v -0.332588 0.000000 4.777772
v -0.282843 0.000000 4.717157
v -0.222228 0.000000 4.667412
v -0.153073 0.000000 4.630448
v -0.078036 0.000000 4.607686
vn -0.0000 -0.0000 -1.0000
vn 0.1951 -0.0000 -0.9808
vn 0.3827 -0.0000 -0.9239
vn 0.5556 -0.0000 -0.8315
vn 0.7071 -0.0000 -0.7071
vn 0.8315 -0.0000 -0.5556
vn 0.9239 -0.0000 -0.3827
vn 0.9808 -0.0000 -0.1951
vn 1.0000 -0.0000 -0.0000
vn 0.9808 -0.0000 0.1951
vn 0.9239 -0.0000 0.3827
vn 0.8315 -0.0000 0.5556
vn 0.7071 -0.0000 0.7071
vn 0.5556 -0.0000 0.8315
vn 0.3827 -0.0000 0.9239
vn 0.1951 -0.0000 0.9808
vn -0.0000 -0.0000 1.0000
vn -0.1951 -0.0000 0.9808
vn -0.3827 -0.0000 0.9239
vn -0.5556 -0.0000 0.8315
vn -0.7071 -0.0000 0.7071
vn -0.8315 -0.0000 0.5556
vn -0.9239 -0.0000 0.3827
vn -0.9808 -0.0000 0.1951
vn -1.0000 -0.0000 -0.0000
vn -0.9808 -0.0000 -0.1951
vn -0.9239 -0.0000 -0.3827
vn -0.8315 -0.0000 -0.5556
vn -0.7071 -0.0000 -0.7071
vn -0.5556 -0.0000 -0.8315
vn -0.3827 -0.0000 -0.9239
vn -0.0000 1.0000 -0.0000
vn -0.1951 -0.0000 -0.9808
vn -0.0000 -1.0000 -0.0000
vt 1.000000 0.500000
vt 1.000000 1.000000
vt 0.968750 1.000000
vt 0.968750 0.500000
vt 0.937500 1.000000
vt 0.937500 0.500000
vt 0.906250 1.000000
vt 0.906250 0.500000
vt 0.875000 1.000000
vt 0.875000 0.500000
vt 0.843750 1.000000
vt 0.843750 0.500000
vt 0.812500 1.000000
vt 0.812500 0.500000
vt 0.781250 1.000000
vt 0.781250 0.500000
vt 0.750000 1.000000
vt 0.750000 0.500000
vt 0.718750 1.000000
vt 0.718750 0.500000
vt 0.687500 1.000000
vt 0.687500 0.500000
vt 0.656250 1.000000
vt 0.656250 0.500000
vt 0.625000 1.000000
vt 0.625000 0.500000
vt 0.593750 1.000000
vt 0.593750 0.500000
vt 0.562500 1.000000
vt 0.562500 0.500000
vt 0.531250 1.000000
vt 0.531250 0.500000
vt 0.500000 1.000000
vt 0.500000 0.500000
vt 0.468750 1.000000
vt 0.468750 0.500000
vt 0.437500 1.000000
vt 0.437500 0.500000
vt 0.406250 1.000000
vt 0.406250 0.500000
vt 0.375000 1.000000
vt 0.375000 0.500000
vt 0.343750 1.000000
vt 0.343750 0.500000
vt 0.312500 1.000000
vt 0.312500 0.500000
vt 0.281250 1.000000
vt 0.281250 0.500000
vt 0.250000 1.000000
vt 0.250000 0.500000
vt 0.218750 1.000000
vt 0.218750 0.500000
vt 0.187500 1.000000
vt 0.187500 0.500000
vt 0.156250 1.000000
vt 0.156250 0.500000
vt 0.125000 1.000000
vt 0.125000 0.500000
vt 0.093750 1.000000
vt 0.093750 0.500000
vt 0.062500 1.000000
vt 0.062500 0.500000
vt 0.296822 0.485388
vt 0.250000 0.490000
vt 0.203178 0.485388
vt 0.158156 0.471731
vt 0.116663 0.449553
vt 0.080294 0.419706
vt 0.050447 0.383337
vt 0.028269 0.341844
vt 0.014612 0.296822
vt 0.010000 0.250000
vt 0.014612 0.203178
vt 0.028269 0.158156
vt 0.050447 0.116663
vt 0.080294 0.080294
vt 0.116663 0.050447
vt 0.158156 0.028269
vt 0.203178 0.014612
vt 0.250000 0.010000
vt 0.296822 0.014612
vt 0.341844 0.028269
vt 0.383337 0.050447
vt 0.419706 0.080294
vt 0.449553 0.116663
vt 0.471731 0.158156
vt 0.485388 0.203178
vt 0.490000 0.250000
vt 0.485388 0.296822
vt 0.471731 0.341844
vt 0.449553 0.383337
vt 0.419706 0.419706
vt 0.383337 0.449553
vt 0.341844 0.471731
vt 0.031250 1.000000
vt 0.031250 0.500000
vt 0.000000 1.000000
vt 0.000000 0.500000
s 1
usemtl Material.018
f 179/27/33 180/28/33 182/29/34 181/30/34
f 181/30/34 182/29/34 184/31/35 183/32/35
f 183/32/35 184/31/35 186/33/36 185/34/36
f 185/34/36 186/33/36 188/35/37 187/36/37
f 187/36/37 188/35/37 190/37/38 189/38/38
f 189/38/38 190/37/38 192/39/39 191/40/39
f 191/40/39 192/39/39 194/41/40 193/42/40
f 193/42/40 194/41/40 196/43/41 195/44/41
f 195/44/41 196/43/41 198/45/42 197/46/42
f 197/46/42 198/45/42 200/47/43 199/48/43
f 199/48/43 200/47/43 202/49/44 201/50/44
f 201/50/44 202/49/44 204/51/45 203/52/45
f 203/52/45 204/51/45 206/53/46 205/54/46
f 205/54/46 206/53/46 208/55/47 207/56/47
f 207/56/47 208/55/47 210/57/48 209/58/48
f 209/58/48 210/57/48 212/59/49 211/60/49
f 211/60/49 212/59/49 214/61/50 213/62/50
f 213/62/50 214/61/50 216/63/51 215/64/51
f 215/64/51 216/63/51 218/65/52 217/66/52
f 217/66/52 218/65/52 220/67/53 219/68/53
f 219/68/53 220/67/53 222/69/54 221/70/54
f 221/70/54 222/69/54 224/71/55 223/72/55
f 223/72/55 224/71/55 226/73/56 225/74/56
f 225/74/56 226/73/56 228/75/57 227/76/57
f 227/76/57 228/75/57 230/77/58 229/78/58
f 229/78/58 230/77/58 232/79/59 231/80/59
f 231/80/59 232/79/59 234/81/60 233/82/60
f 233/82/60 234/81/60 236/83/61 235/84/61
f 235/84/61 236/83/61 238/85/62 237/86/62
f 237/86/62 238/85/62 240/87/63 239/88/63
s 0
f 182/89/64 180/90/64 242/91/64 240/92/64 238/93/64 236/94/64 234/95/64 232/96/64 230/97/64 228/98/64 226/99/64 224/100/64 222/101/64 220/102/64 218/103/64 216/104/64 214/105/64 212/106/64 210/107/64 208/108/64 206/109/64 204/110/64 202/111/64 200/112/64 198/113/64 196/114/64 194/115/64 192/116/64 190/117/64 188/118/64 186/119/64 184/120/64
s 1
f 239/88/63 240/87/63 242/121/65 241/122/65
f 241/122/65 242/121/65 180/123/33 179/124/33
s 0
f 215/64/66 217/66/66 262/66/66 261/64/66
s 1
f 269/80/59 270/82/60 302/82/60 301/80/59
s 0
f 233/82/66 235/84/66 271/84/66 270/82/66
f 189/38/66 191/40/66 249/40/66 248/38/66
f 207/56/66 209/58/66 258/58/66 257/56/66
f 225/74/66 227/76/66 267/76/66 266/74/66
f 181/30/66 183/32/66 245/32/66 244/30/66
f 199/48/66 201/50/66 254/50/66 253/48/66
f 217/66/66 219/68/66 263/68/66 262/66/66
f 235/84/66 237/86/66 272/86/66 271/84/66
f 191/40/66 193/42/66 250/42/66 249/40/66
f 209/58/66 211/60/66 259/60/66 258/58/66
f 227/76/66 229/78/66 268/78/66 267/76/66
f 183/32/66 185/34/66 246/34/66 245/32/66
f 201/50/66 203/52/66 255/52/66 254/50/66
f 219/68/66 221/70/66 264/70/66 263/68/66
f 237/86/66 239/88/66 273/88/66 272/86/66
f 193/42/66 195/44/66 251/44/66 250/42/66
f 211/60/66 213/62/66 260/62/66 259/60/66
f 229/78/66 231/80/66 269/80/66 268/78/66
f 185/34/66 187/36/66 247/36/66 246/34/66
f 203/52/66 205/54/66 256/54/66 255/52/66
f 221/70/66 223/72/66 265/72/66 264/70/66
f 239/88/66 241/122/66 274/122/66 273/88/66
f 195/44/66 197/46/66 252/46/66 251/44/66
f 213/62/66 215/64/66 261/64/66 260/62/66
f 231/80/66 233/82/66 270/82/66 269/80/66
f 187/36/66 189/38/66 248/38/66 247/36/66
f 205/54/66 207/56/66 257/56/66 256/54/66
f 223/72/66 225/74/66 266/74/66 265/72/66
f 179/27/66 181/30/66 244/30/66 243/27/66
f 241/122/66 179/124/66 243/124/66 274/122/66
f 197/46/66 199/48/66 253/48/66 252/46/66
s 1
f 256/54/46 257/56/47 289/56/47 288/54/46
f 243/27/33 244/30/34 276/30/34 275/27/33
f 270/82/60 271/84/61 303/84/61 302/82/60
f 257/56/47 258/58/48 290/58/48 289/56/47
f 244/30/34 245/32/35 277/32/35 276/30/34
f 271/84/61 272/86/62 304/86/62 303/84/61
f 258/58/48 259/60/49 291/60/49 290/58/48
f 245/32/35 246/34/36 278/34/36 277/32/35
f 272/86/62 273/88/63 305/88/63 304/86/62
f 259/60/49 260/62/50 292/62/50 291/60/49
f 246/34/36 247/36/37 279/36/37 278/34/36
f 273/88/63 274/122/65 306/122/65 305/88/63
f 260/62/50 261/64/51 293/64/51 292/62/50
f 247/36/37 248/38/38 280/38/38 279/36/37
f 274/122/65 243/124/33 275/124/33 306/122/65
f 261/64/51 262/66/52 294/66/52 293/64/51
f 248/38/38 249/40/39 281/40/39 280/38/38
f 262/66/52 263/68/53 295/68/53 294/66/52
f 249/40/39 250/42/40 282/42/40 281/40/39
f 263/68/53 264/70/54 296/70/54 295/68/53
f 250/42/40 251/44/41 283/44/41 282/42/40
f 264/70/54 265/72/55 297/72/55 296/70/54
f 251/44/41 252/46/42 284/46/42 283/44/41
f 265/72/55 266/74/56 298/74/56 297/72/55
f 252/46/42 253/48/43 285/48/43 284/46/42
f 266/74/56 267/76/57 299/76/57 298/74/56
f 253/48/43 254/50/44 286/50/44 285/48/43
f 267/76/57 268/78/58 300/78/58 299/76/57
f 254/50/44 255/52/45 287/52/45 286/50/44
f 268/78/58 269/80/59 301/80/59 300/78/58
f 255/52/45 256/54/46 288/54/46 287/52/45
