# Blender 4.1.1
# www.blender.org
mtllib testcube.mtl
o Cube
v 1.000000 1.000000 1.000000
v -1.000000 -1.000000 -1.000000
v -1.000000 1.000000 1.000000
v -1.000000 -1.000000 1.000000
v 1.000000 -0.084452 -1.000000
v 1.000000 1.000000 0.084452
v -1.000000 1.000000 0.084452
v -1.000000 -0.084452 -1.000000
v 1.000000 -0.437847 -1.000000
v 0.437847 -1.000000 -1.000000
v 0.437847 -1.000000 1.000000
v 1.000000 -0.437847 1.000000
vn -1.0000 -0.0000 -0.0000
vn 1.0000 -0.0000 -0.0000
vn -0.0000 1.0000 -0.0000
vn -0.0000 -0.0000 1.0000
vn -0.0000 0.7071 -0.7071
vn -0.0000 -1.0000 -0.0000
vn 0.7071 -0.7071 -0.0000
vn -0.0000 -0.0000 -1.0000
vt 0.375000 0.000000
vt 0.625000 0.000000
vt 0.625000 0.114444
vt 0.489444 0.250000
vt 0.375000 0.250000
vt 0.445269 0.500000
vt 0.489444 0.500000
vt 0.625000 0.635556
vt 0.625000 0.750000
vt 0.445269 0.750000
vt 0.875000 0.635556
vt 0.875000 0.750000
vt 0.375000 0.820269
vt 0.625000 1.000000
vt 0.375000 1.000000
vt 0.625000 0.250000
vt 0.625000 0.500000
vt 0.125000 0.500000
vt 0.304731 0.500000
vt 0.304731 0.750000
vt 0.125000 0.750000
vt 0.375000 0.429731
s 0
usemtl Material
f 4/1/1 3/2/1 7/3/1 8/4/1 2/5/1
f 9/6/2 5/7/2 6/8/2 1/9/2 12/10/2
f 6/8/3 7/11/3 3/12/3 1/9/3
f 11/13/4 12/10/4 1/9/4 3/14/4 4/15/4
f 7/16/5 6/17/5 5/7/5 8/4/5
f 2/18/6 10/19/6 11/20/6 4/21/6
f 11/20/7 10/19/7 9/6/7 12/10/7
f 2/5/8 8/4/8 5/7/8 9/6/8 10/22/8
